Coordinates
version=1
nRows=20
nColumns=38
inDegrees=no

Units are S.I. units (second, meters, Newtons, ...)
If the header above contains a line with 'inDegrees', this indicates whether rotational values are in degrees (yes) or radians (no).

endheader
time	pelvis_tilt	pelvis_list	pelvis_rotation	pelvis_tx	pelvis_ty	pelvis_tz	hip_flexion_r	hip_adduction_r	hip_rotation_r	knee_angle_r	ankle_angle_r	subtalar_angle_r	mtp_angle_r	hip_flexion_l	hip_adduction_l	hip_rotation_l	knee_angle_l	ankle_angle_l	subtalar_angle_l	mtp_angle_l	lumbar_extension	lumbar_bending	lumbar_rotation	arm_flex_r	arm_add_r	arm_rot_r	elbow_flex_r	pro_sup_r	wrist_flex_r	wrist_dev_r	arm_flex_l	arm_add_l	arm_rot_l	elbow_flex_l	pro_sup_l	wrist_flex_l	wrist_dev_l
150	-0.679329	1.26936	-0.624096	0.817278	-0.703881	0.927209	-0.317562	0.213203	-0.201012	0.0458473	-0.389851	0	0	-0.214789	-0.418841	-0.350488	0.275658	-0.186274	0	0	-0.368686	0.217007	-0.379329	0.308748	-0.126449	0.559247	0.351746	1.32318	0	0	-0.102401	-0.317651	0.324049	0.921874	0	0	0
150.01	-0.681785	1.26956	-0.622748	0.817476	-0.703693	0.927199	-0.316487	0.212717	-0.200157	0.0461744	-0.390106	0	0	-0.213853	-0.418935	-0.352609	0.276867	-0.185993	0	0	-0.367829	0.216909	-0.377275	0.306875	-0.127505	0.555832	0.353389	1.32225	0	0	-0.100098	-0.318163	0.328307	0.920095	0	0	0
150.02	-0.683846	1.26975	-0.621649	0.817676	-0.703467	0.927187	-0.315386	0.212204	-0.199769	0.0468287	-0.390284	0	0	-0.212779	-0.41909	-0.354827	0.278368	-0.185694	0	0	-0.367299	0.216812	-0.376161	0.305711	-0.128001	0.552693	0.354506	1.32181	0	0	-0.0987247	-0.318526	0.330606	0.919175	0	0	0
150.03	-0.683806	1.2698	-0.622394	0.817863	-0.703171	0.927225	-0.314679	0.21149	-0.199908	0.0478107	-0.390294	0	0	-0.211975	-0.419244	-0.357657	0.280383	-0.185441	0	0	-0.367445	0.216435	-0.375686	0.305034	-0.127983	0.54879	0.355317	1.32136	0	0	-0.0977265	-0.319085	0.332041	0.918829	0	0	0
150.04	-0.670589	1.26758	-0.634692	0.818181	-0.702228	0.927713	-0.317641	0.21026	-0.20119	0.0499081	-0.390117	0	0	-0.214096	-0.419611	-0.363586	0.284318	-0.186545	0	0	-0.384993	0.217137	-0.407755	0.326639	-0.11013	0.570372	0.343354	1.33609	0	0	-0.130027	-0.318887	0.275171	0.95029	0	0	0
150.05	-0.667011	1.26716	-0.638472	0.818417	-0.701838	0.927853	-0.318226	0.209431	-0.201553	0.0503839	-0.39034	0	0	-0.214276	-0.419417	-0.365059	0.286213	-0.186673	0	0	-0.387045	0.216739	-0.408618	0.327426	-0.109355	0.572786	0.342068	1.33806	0	0	-0.130251	-0.319513	0.273825	0.951794	0	0	0
150.06	-0.666382	1.26682	-0.639717	0.818697	-0.701539	0.92788	-0.318198	0.208916	-0.201716	0.0507593	-0.390622	0	0	-0.213861	-0.419744	-0.367561	0.288423	-0.186507	0	0	-0.387978	0.216799	-0.4099	0.328112	-0.108693	0.572194	0.341775	1.3383	0	0	-0.131168	-0.319579	0.271794	0.953118	0	0	0
150.07	-0.666981	1.26662	-0.639913	0.818998	-0.701274	0.927859	-0.317831	0.208463	-0.201709	0.0511635	-0.390825	0	0	-0.213044	-0.420254	-0.37045	0.290888	-0.186181	0	0	-0.388246	0.217038	-0.410841	0.328424	-0.108316	0.571008	0.341596	1.33832	0	0	-0.131726	-0.319418	0.270441	0.953733	0	0	0
150.08	-0.670839	1.26659	-0.637357	0.819354	-0.701089	0.927761	-0.316581	0.208253	-0.200928	0.0516208	-0.391048	0	0	-0.21144	-0.421325	-0.374894	0.29385	-0.185605	0	0	-0.387871	0.217653	-0.411223	0.32853	-0.108283	0.570448	0.341268	1.33918	0	0	-0.132467	-0.318752	0.268707	0.954474	0	0	0
150.09	-0.674127	1.26636	-0.634753	0.819756	-0.701147	0.927558	-0.316381	0.208458	-0.202212	0.0509791	-0.391156	0	0	-0.210447	-0.42242	-0.377601	0.296084	-0.184968	0	0	-0.377641	0.217757	-0.392377	0.317815	-0.117944	0.563724	0.341091	1.33709	0	0	-0.113341	-0.316044	0.295338	0.936142	0	0	0
150.1	-0.681378	1.26709	-0.629566	0.82005	-0.70108	0.927429	-0.313888	0.208071	-0.200855	0.0514656	-0.391267	0	0	-0.207911	-0.42331	-0.381628	0.298861	-0.184187	0	0	-0.373571	0.217511	-0.385029	0.312588	-0.121941	0.556435	0.344114	1.33474	0	0	-0.105645	-0.316885	0.310623	0.928669	0	0	0
150.11	-0.678992	1.26623	-0.632216	0.820366	-0.700269	0.927641	-0.313184	0.207375	-0.19917	0.053878	-0.390925	0	0	-0.20512	-0.426465	-0.39724	0.307889	-0.183507	0	0	-0.38807	0.219181	-0.412215	0.328908	-0.107684	0.56516	0.340085	1.34662	0	0	-0.133624	-0.31777	0.265006	0.956939	0	0	0
150.12	-0.677876	1.26569	-0.6331	0.820752	-0.700147	0.927567	-0.314072	0.207283	-0.201431	0.0532101	-0.39118	0	0	-0.204563	-0.427488	-0.398957	0.310787	-0.183166	0	0	-0.378391	0.218357	-0.393248	0.317749	-0.117054	0.557319	0.339511	1.34394	0	0	-0.11326	-0.315842	0.293306	0.938063	0	0	0
150.13	-0.679094	1.26535	-0.633993	0.821044	-0.69962	0.927734	-0.312858	0.206394	-0.198847	0.0547213	-0.391739	0	0	-0.202503	-0.429948	-0.412582	0.318163	-0.183009	0	0	-0.389716	0.219493	-0.413543	0.329072	-0.106435	0.560095	0.339082	1.3509	0	0	-0.134677	-0.317856	0.262635	0.959277	0	0	0
150.14	-0.679268	1.26462	-0.635817	0.821423	-0.699828	0.927658	-0.314073	0.205913	-0.200532	0.0543072	-0.391887	0	0	-0.203662	-0.430918	-0.416974	0.320877	-0.182549	0	0	-0.378716	0.218111	-0.391235	0.316548	-0.116996	0.551574	0.338226	1.34797	0	0	-0.11308	-0.315319	0.294122	0.938134	0	0	0
150.15	-0.676655	1.26378	-0.641633	0.821678	-0.699442	0.927916	-0.314727	0.204393	-0.197479	0.0555006	-0.392161	0	0	-0.204413	-0.433141	-0.43433	0.327623	-0.182974	0	0	-0.390769	0.218786	-0.411728	0.328603	-0.106058	0.557547	0.336396	1.35669	0	0	-0.135421	-0.317048	0.262432	0.959167	0	0	0
150.16	-0.677412	1.26374	-0.638995	0.82215	-0.699063	0.927745	-0.314266	0.204677	-0.200415	0.0549665	-0.392333	0	0	-0.20131	-0.434982	-0.435115	0.331634	-0.182849	0	0	-0.380241	0.218565	-0.394605	0.317943	-0.115137	0.549225	0.335753	1.35365	0	0	-0.114696	-0.31563	0.291066	0.939973	0	0	0
150.17	-0.684771	1.26488	-0.63151	0.822553	-0.698621	0.927572	-0.310553	0.204497	-0.200792	0.0557309	-0.392626	0	0	-0.195907	-0.436916	-0.437757	0.336721	-0.182593	0	0	-0.375947	0.218777	-0.390154	0.313288	-0.118244	0.539583	0.339006	1.34987	0	0	-0.106723	-0.317561	0.306878	0.932546	0	0	0
150.18	-0.68939	1.26557	-0.627321	0.822955	-0.69821	0.927474	-0.307926	0.203952	-0.200729	0.0568377	-0.392752	0	0	-0.191906	-0.438844	-0.442985	0.342299	-0.182312	0	0	-0.373789	0.218726	-0.388455	0.310506	-0.119464	0.530602	0.341379	1.34668	0	0	-0.102936	-0.318965	0.315137	0.929416	0	0	0
150.19	-0.691561	1.2658	-0.626041	0.823375	-0.697804	0.927465	-0.306397	0.203114	-0.200475	0.05769	-0.392925	0	0	-0.189373	-0.440645	-0.450287	0.347833	-0.182111	0	0	-0.373004	0.218536	-0.38747	0.308694	-0.120021	0.524351	0.342448	1.34586	0	0	-0.100682	-0.319793	0.319793	0.927755	0	0	0
